HIERARCHY
ROOT Hips
{
	OFFSET 0.000000 0.000000 0.000000 
	CHANNELS 6 Xposition Yposition Zposition Zrotation Yrotation Xrotation
	JOINT LeftUpLeg
	{
		OFFSET 1.363060 -1.794630 0.839290 
		CHANNELS 3 Zrotation Yrotation Xrotation
		JOINT LeftLeg
		{
			OFFSET 2.448110 -6.726130 0.000000 
			CHANNELS 3 Zrotation Yrotation Xrotation
			JOINT LeftFoot
			{
				OFFSET 2.562200 -7.039590 0.000000 
				CHANNELS 3 Zrotation Yrotation Xrotation
				JOINT LeftToeBase
				{
					OFFSET 0.157640 -0.433110 2.322550 
					CHANNELS 3 Zrotation Yrotation Xrotation
					End Site
					{
						OFFSET 0.000000 0.000000 0.000000 
					}
				}
			}
		}
	}
	JOINT RightUpLeg
	{
		OFFSET -1.305520 -1.794630 0.839290 
		CHANNELS 3 Zrotation Yrotation Xrotation
		JOINT RightLeg
		{
			OFFSET -2.542530 -6.985550 0.000000 
			CHANNELS 3 Zrotation Yrotation Xrotation
			JOINT RightFoot
			{
				OFFSET -2.568260 -7.056230 0.000000 
				CHANNELS 3 Zrotation Yrotation Xrotation
				JOINT RightToeBase
				{
					OFFSET -0.164730 -0.452590 2.363150 
					CHANNELS 3 Zrotation Yrotation Xrotation
					End Site
					{
						OFFSET 0.000000 0.000000 0.000000 
					}
				}
			}
		}
	}
	JOINT Spine
	{
		OFFSET 0.028270 2.035590 -0.193380 
		CHANNELS 3 Zrotation Yrotation Xrotation
		JOINT Spine1
		{
			OFFSET 0.056720 2.048850 -0.042750 
			CHANNELS 3 Zrotation Yrotation Xrotation
			JOINT Neck1
			{
				OFFSET -0.054170 1.746240 0.172020 
				CHANNELS 3 Zrotation Yrotation Xrotation
				JOINT Head
				{
					OFFSET 0.104070 1.761360 -0.123970 
					CHANNELS 3 Zrotation Yrotation Xrotation
					End Site
					{
						OFFSET 0.000000 0.000000 0.000000 
					}
				}
			}
			JOINT LeftArm
			{
				OFFSET 3.362410 1.200890 -0.311210 
				CHANNELS 3 Zrotation Yrotation Xrotation
				JOINT LeftForeArm
				{
					OFFSET 4.983000 -0.000000 -0.000000 
					CHANNELS 3 Zrotation Yrotation Xrotation
					JOINT LeftHand
					{
						OFFSET 3.483560 -0.000000 -0.000000 
						CHANNELS 3 Zrotation Yrotation Xrotation
						JOINT LeftHandIndex1
						{
							OFFSET 0.715260 -0.000000 -0.000000 
							CHANNELS 3 Zrotation Yrotation Xrotation
							End Site
							{
								OFFSET 0.000000 0.000000 0.000000 
							}
						}
					}
				}
			}
			JOINT RightArm
			{
				OFFSET -3.136600 1.374050 -0.404650 
				CHANNELS 3 Zrotation Yrotation Xrotation
				JOINT RightForeArm
				{
					OFFSET -5.241900 -0.000000 -0.000000 
					CHANNELS 3 Zrotation Yrotation Xrotation
					JOINT RightHand
					{
						OFFSET -3.444170 -0.000000 -0.000000 
						CHANNELS 3 Zrotation Yrotation Xrotation
						JOINT RightHandIndex1
						{
							OFFSET -0.622530 -0.000000 -0.000000 
							CHANNELS 3 Zrotation Yrotation Xrotation
							End Site
							{
								OFFSET 0.000000 0.000000 0.000000 
							}
						}
					}
				}
			}
		}
	}
}
MOTION
Frames: 12
Frame Time: 0.041667
-0.660607 18.301117 6.197807 -2.489170 -2.243686 -1.601639 -12.769859 -5.278839 -4.403618 1.193722 7.531514 24.615410 -0.420882 6.093877 -15.390684 8.142800 -16.223300 -53.075500 19.964559 1.236333 10.243875 0.552239 1.012162 1.756687 0.119939 -6.987529 -18.301465 -0.006300 0.510500 -1.402900 -3.468826 2.287154 21.413509 -2.571421 1.396351 -18.218930 3.069838 -3.754155 29.185100 0.176100 -1.185500 9.216100 -95.664268 9.331391 18.811965 24.918446 -34.695676 -6.718208 0.451093 0.433097 0.897164 -7.125000 0.000000 0.000000 100.198254 -16.160486 12.417106 -32.823589 41.282433 -9.846004 1.090372 -3.299990 2.244006 7.125000 0.000000 0.000000 
-0.660509 18.299939 6.198200 -2.495952 -2.243303 -1.582655 -12.761266 -5.242321 -4.425488 1.196475 7.528442 24.611237 -0.398055 5.997232 -15.367981 8.120100 -16.206900 -52.994300 19.964184 1.246624 10.219736 0.552687 1.011793 1.756132 0.124514 -7.013458 -18.306304 -0.008700 0.602700 -1.656300 -3.389268 2.273867 21.447751 -2.580045 1.395792 -18.193492 3.050697 -3.741697 29.099531 0.172900 -1.184000 9.193700 -95.578292 9.514011 19.212442 25.179841 -34.952423 -6.842777 0.446767 0.452045 0.489175 -7.125000 0.000000 0.000000 100.183688 -16.116568 12.417872 -32.752004 41.221003 -9.806791 1.079258 -3.301396 2.247819 7.125000 0.000000 0.000000 
-0.660607 18.300332 6.199182 -2.530491 -2.231555 -1.620563 -12.756110 -5.228385 -4.427989 1.202856 7.526651 24.633692 -0.397759 5.992631 -15.367994 8.144200 -16.224300 -53.080300 19.957107 1.246090 10.220020 0.552245 1.012432 1.756084 0.118507 -6.995102 -18.328536 -0.008200 0.584700 -1.606800 -3.016341 2.206887 21.775112 -2.620148 1.389167 -18.164230 3.001759 -3.705633 28.970182 0.170500 -1.178100 9.178000 -95.469553 9.836264 19.926810 25.723061 -35.488868 -7.104496 0.435366 0.486583 -0.282096 -7.125000 0.000000 0.000000 100.111182 -16.015347 12.507420 -32.680474 41.172453 -9.773450 1.059940 -3.304229 2.165639 7.125000 0.000000 0.000000 
-0.661295 18.301117 6.199477 -2.377459 -2.256236 -1.414033 -12.804056 -5.237298 -4.490123 1.185226 7.565805 24.619952 -0.425792 6.121764 -15.377783 8.184500 -16.253300 -53.224400 19.967776 1.222653 10.211684 0.553026 1.003400 1.756114 0.096318 -6.928911 -18.398875 -0.004800 0.446100 -1.225800 -4.356507 2.448174 19.891963 -2.486576 1.419962 -18.274578 3.292101 -3.926342 29.550716 0.194900 -1.226500 9.198900 -95.026725 10.733226 20.455096 26.066176 -35.762290 -7.264559 0.430654 0.502749 -0.685589 -7.125000 0.000000 0.000000 100.439140 -16.588805 12.173152 -32.766590 41.167042 -9.804892 1.046000 -3.296469 2.137486 7.125000 0.000000 0.000000 
-0.661098 18.300233 6.200164 -2.350358 -2.274202 -1.321817 -12.804213 -5.302033 -4.487029 1.176302 7.579740 24.610256 -0.428135 6.162232 -15.450147 8.155500 -16.232400 -53.120800 20.000733 1.223093 10.204828 0.553496 0.999647 1.755872 0.090287 -6.911617 -18.417724 -0.003400 0.376500 -1.034400 -4.840669 2.528432 19.141173 -2.455594 1.428201 -18.284938 3.390219 -4.000053 29.734002 0.201300 -1.241800 9.197500 -94.897057 10.988263 20.500885 26.089614 -35.764927 -7.274951 0.431779 0.503785 -0.685577 -7.125000 0.000000 0.000000 100.581920 -16.802760 12.018037 -32.825882 41.186677 -9.828815 1.045037 -3.292113 2.165247 7.125000 0.000000 0.000000 
-0.660804 18.300135 6.201048 -2.355992 -2.281984 -1.286851 -12.791470 -5.326076 -4.480446 1.173200 7.578042 24.594688 -0.412044 6.114168 -15.487293 8.118700 -16.205900 -52.989300 20.019587 1.231690 10.189835 0.554341 0.998920 1.755004 0.108846 -6.980618 -18.372776 -0.005100 0.460400 -1.265100 -4.930677 2.540447 18.984168 -2.453571 1.426970 -18.268753 3.354051 -3.993125 29.793818 0.189000 -1.239400 9.203400 -94.872864 11.037332 20.507088 26.097422 -35.768548 -7.280230 0.432824 0.506197 -0.692345 -7.125000 0.000000 0.000000 100.625966 -16.839587 11.958195 -32.856515 41.209841 -9.846316 1.045488 -3.291920 2.168861 7.125000 0.000000 0.000000 
-0.661785 18.300528 6.201538 -2.296859 -2.282200 -1.270669 -12.825963 -5.290582 -4.487768 1.171626 7.573756 24.576023 -0.400671 6.059272 -15.450893 8.112000 -16.201000 -52.965000 19.977053 1.231636 10.184632 0.554605 0.998448 1.754563 0.119792 -7.017691 -18.341142 -0.008400 0.591800 -1.626300 -5.091692 2.553321 18.885023 -2.386097 1.435953 -18.274665 3.269983 -3.982299 29.932111 0.164400 -1.238400 9.238800 -94.869278 11.047857 20.471155 26.080620 -35.748543 -7.272590 0.434210 0.505515 -0.650307 -7.125000 0.000000 0.000000 100.651603 -16.855615 11.944406 -32.870931 41.227615 -9.858401 1.045255 -3.293624 2.144069 7.125000 0.000000 0.000000 
-0.662964 18.299841 6.202520 -2.260443 -2.282894 -1.255349 -12.852379 -5.249980 -4.511215 1.171431 7.571039 24.568542 -0.404928 6.059037 -15.402567 8.124100 -16.209700 -53.008300 19.944979 1.237502 10.174458 0.554012 0.997834 1.754619 0.108782 -6.972697 -18.360287 -0.007800 0.569300 -1.564400 -5.131802 2.554411 18.878909 -2.337369 1.444569 -18.268886 3.171466 -3.973773 30.015148 0.138300 -1.242700 9.264700 -94.886329 11.019857 20.386576 26.045648 -35.710898 -7.254481 0.434990 0.502001 -0.547614 -7.125000 0.000000 0.000000 100.647924 -16.839238 11.964617 -32.851172 41.214630 -9.848797 1.044331 -3.295118 2.109861 7.125000 0.000000 0.000000 
-0.662866 18.300135 6.204288 -2.296503 -2.280314 -1.219596 -12.823006 -5.203000 -4.563678 1.173338 7.570297 24.569730 -0.403364 6.040417 -15.368153 8.134700 -16.217400 -53.046300 19.970505 1.249252 10.141698 0.553834 0.996637 1.754147 0.099622 -6.942637 -18.388095 -0.004900 0.452000 -1.242100 -4.986237 2.534460 18.880612 -2.350788 1.441991 -18.235818 3.035423 -3.939867 29.931292 0.105400 -1.243500 9.233100 -94.912632 11.032239 20.304054 26.117204 -35.775208 -7.286635 0.431377 0.501775 -0.481672 -7.125000 0.000000 0.000000 100.637090 -16.808905 11.953610 -32.826631 41.192663 -9.834155 1.041053 -3.295272 2.113407 7.125000 0.000000 0.000000 
-0.662964 18.301412 6.205466 -2.350206 -2.291799 -1.186304 -12.776715 -5.168331 -4.605409 1.175642 7.571035 24.573254 -0.391395 5.992221 -15.364503 8.129500 -16.213700 -53.027900 20.015707 1.272287 10.114977 0.553848 0.995327 1.753193 0.102232 -6.947395 -18.372498 -0.003500 0.383700 -1.054200 -4.825283 2.521065 18.839402 -2.388167 1.438849 -18.209260 2.956651 -3.910205 29.791820 0.088200 -1.241700 9.178200 -94.940429 11.110842 20.237969 26.369376 -36.016957 -7.408122 0.422175 0.507385 -0.474340 -7.125000 0.000000 0.000000 100.639448 -16.791960 11.923796 -32.815531 41.179337 -9.824174 1.040883 -3.293915 2.160397 7.125000 0.000000 0.000000 
-0.663258 18.300822 6.205368 -2.383553 -2.294475 -1.189267 -12.760429 -5.176108 -4.599118 1.176547 7.572196 24.580891 -0.397527 6.016191 -15.368045 8.138800 -16.220400 -53.061100 20.037736 1.276193 10.117734 0.553559 0.994504 1.752666 0.105675 -6.950750 -18.347155 -0.004300 0.423000 -1.162300 -4.679058 2.502096 18.822941 -2.422769 1.433125 -18.221699 2.979895 -3.914238 29.759331 0.100000 -1.245000 9.163600 -94.956647 11.084254 20.257286 26.202855 -35.856764 -7.329179 0.429781 0.502325 -0.545314 -7.125000 0.000000 0.000000 100.617390 -16.786889 11.946761 -32.808322 41.166034 -9.814120 1.047273 -3.291716 2.164741 7.125000 0.000000 0.000000 
-0.663160 18.299448 6.205171 -2.385229 -2.283074 -1.205492 -12.766986 -5.237888 -4.557597 1.175566 7.573666 24.585488 -0.404379 6.052677 -15.397732 8.128200 -16.212700 -53.023000 20.039976 1.258025 10.131798 0.554135 0.994927 1.752810 0.112351 -6.986940 -18.351275 -0.007200 0.548000 -1.505900 -4.674863 2.492261 18.819798 -2.430155 1.426253 -18.246037 2.971897 -3.927227 29.786820 0.096700 -1.252000 9.170500 -94.981060 11.142515 20.199355 26.371269 -36.023427 -7.412120 0.423912 0.506100 -0.484041 -7.125000 0.000000 0.000000 100.615498 -16.789540 11.973184 -32.817870 41.176692 -9.820788 1.049283 -3.292085 2.110652 7.125000 0.000000 0.000000 
